<?xml version="1.0" encoding="UTF-8" standalone="no"?>
<svg
   xmlns:dc="http://purl.org/dc/elements/1.1/"
   xmlns:cc="http://creativecommons.org/ns#"
   xmlns:rdf="http://www.w3.org/1999/02/22-rdf-syntax-ns#"
   xmlns:svg="http://www.w3.org/2000/svg"
   xmlns="http://www.w3.org/2000/svg"
   xmlns:sodipodi="http://sodipodi.sourceforge.net/DTD/sodipodi-0.dtd"
   xmlns:inkscape="http://www.inkscape.org/namespaces/inkscape"
   version="1.1"
   id="Capa_1"
   x="0px"
   y="0px"
   width="974.9px"
   height="974.9px"
   viewBox="0 0 974.9 974.9"
   style="enable-background:new 0 0 974.9 974.9;"
   xml:space="preserve"
   sodipodi:docname="copy.svg"
   inkscape:version="1.0.2-2 (e86c870879, 2021-01-15)"><metadata
   id="metadata47"><rdf:RDF><cc:Work
       rdf:about=""><dc:format>image/svg+xml</dc:format><dc:type
         rdf:resource="http://purl.org/dc/dcmitype/StillImage" /></cc:Work></rdf:RDF></metadata><defs
   id="defs45" /><sodipodi:namedview
   pagecolor="#ffffff"
   bordercolor="#666666"
   borderopacity="1"
   objecttolerance="10"
   gridtolerance="10"
   guidetolerance="10"
   inkscape:pageopacity="0"
   inkscape:pageshadow="2"
   inkscape:window-width="1920"
   inkscape:window-height="1001"
   id="namedview43"
   showgrid="false"
   inkscape:zoom="0.85136935"
   inkscape:cx="487.45001"
   inkscape:cy="485.10086"
   inkscape:window-x="-9"
   inkscape:window-y="-9"
   inkscape:window-maximized="1"
   inkscape:current-layer="Capa_1" />
<g
   id="g10">
	<path
   d="M974.572,292.3c0-16.6-13.399-30-30-30h-206.3c-16.6,0-30-13.4-30-30V30c0-16.6-13.4-30-30-30h-215.2   c-24.899,0-45,20.1-45,45v156.8c0.4,0.4,0.9,0.8,1.3,1.3l175.101,175.1c14.3,14.3,21.899,33.3,21.8,52.7h0.1v303.2h313.101   c24.899,0,45-20.101,45-45V292.3H974.572z"
   id="path2" />
	<path
   d="M795.072,4.5c-9.399-9.4-25.6-2.8-25.6,10.6v175.1c0,8.3,6.7,15,15,15h175.1c13.4,0,20.101-16.2,10.601-25.6L795.072,4.5z"
   id="path4" />
	<path
   d="M45.272,974.9L45.272,974.9h466.5l0,0c24.9,0,45-20.101,45-45v-195.8v-197c0-16.601-13.4-30-30-30h-108.7h-96.5   c-16.6,0-30-13.4-30-30V431V270.8c0-16.6-13.4-30-30-30h-216.3c-24.9,0-45,20.1-45,36v644.1c0,9,1.4,17,4,24   C11.373,964,27.072,974.9,45.272,974.9z"
   id="path6" />
	<path
   d="M366.673,445.9h51.3h123.8c9,0,14.9-7.3,15-15c0-3.7-1.3-7.5-4.4-10.601L418.072,285.9l-40.7-40.7   c-3.1-3.1-6.8-4.4-10.5-4.4c-7.699,0-15.1,6-15.1,15v175.1l0,0C351.673,439.2,358.473,445.9,366.673,445.9z"
   id="path8" />
</g>
<g
   id="g12">
</g>
<g
   id="g14">
</g>
<g
   id="g16">
</g>
<g
   id="g18">
</g>
<g
   id="g20">
</g>
<g
   id="g22">
</g>
<g
   id="g24">
</g>
<g
   id="g26">
</g>
<g
   id="g28">
</g>
<g
   id="g30">
</g>
<g
   id="g32">
</g>
<g
   id="g34">
</g>
<g
   id="g36">
</g>
<g
   id="g38">
</g>
<g
   id="g40">
</g>
<path
   style="fill:#ffffff;stroke:#ffffff;stroke-width:1.1135"
   d="M 39.113536,973.6318 C 19.657239,970.77872 5.0662008,954.15909 1.8059647,931.13734 0.78038363,923.89532 0.52818533,839.49674 0.80480804,596.09851 L 1.1745783,270.74031 3.7462159,265.93464 C 10.438748,253.42816 25.086231,244.0082 41.110242,241.9054 c 6.154507,-0.80764 46.883625,-1.11172 118.045128,-0.88132 102.9473,0.33331 108.91092,0.46651 113.64954,2.53845 6.26157,2.73785 14.66687,11.94999 16.50689,18.09146 1.03433,3.4523 1.39634,32.35662 1.39634,111.49137 0,119.8839 -0.33693,114.86712 8.34731,124.2884 9.34122,10.13403 -0.77648,9.32188 124.38004,9.98408 l 110.99766,0.58729 4.77843,2.55774 c 6.26984,3.35605 12.61459,10.49394 15.05418,16.93605 1.80583,4.76859 1.9334,21.08081 1.63426,208.9617 l -0.32446,203.78934 -3.72859,7.87051 c -6.8519,14.46343 -19.44757,23.63401 -35.26052,25.67228 -10.17128,1.31106 -468.488233,1.15657 -477.472914,-0.16095 z"
   id="path872" /><path
   style="fill:#ffffff;stroke:#ffffff;stroke-width:1.1135"
   d="m 359.8829,443.41852 c -1.684,-0.92166 -4.06252,-3.15208 -5.2856,-4.95649 -2.12361,-3.13296 -2.24007,-7.17006 -2.58492,-89.61226 -0.19862,-47.48233 -0.0155,-89.21032 0.407,-92.72886 1.57938,-13.1539 13.19064,-18.4554 23.5631,-10.75851 2.5195,1.86959 43.78919,42.70087 91.71042,90.73618 77.27783,77.46177 87.22049,87.83715 87.93413,91.76116 0.94822,5.21398 -0.75515,10.0288 -4.9385,13.95934 l -2.93626,2.75882 -92.40378,0.25819 c -78.16284,0.21839 -92.87566,-9e-5 -95.46559,-1.41757 z"
   id="path874" /><path
   style="fill:#ffffff;stroke:#ffffff;stroke-width:1.1135"
   d="m 616.9798,575.83703 -0.32617,-158.27443 -2.74668,-8.22205 c -6.40072,-19.16019 -3.6592,-16.08364 -103.11188,-115.71311 l -92.05789,-92.22156 v -81.35945 c 0,-79.443047 0.0579,-81.531251 2.45707,-88.653155 3.28792,-9.760041 9.47736,-17.886908 17.64148,-23.1636335 12.38517,-8.00492011 6.12239,-7.64235233 132.00934,-7.64235233 102.66242,0 114.34927,0.18881876 118.13056,1.90857733 5.96685,2.7137719 12.54776,8.8194795 15.54693,14.4243105 l 2.5736,4.809522 0.58729,109.823071 0.58729,109.82308 2.55774,4.77843 c 1.40676,2.62814 4.67877,6.69465 7.27113,9.0367 9.06132,8.18637 4.80039,7.91457 124.07701,7.91457 118.84331,0 113.7162,-0.32665 122.05963,7.77639 2.32282,2.25589 5.40814,6.31826 6.85625,9.02747 l 2.63295,4.92584 0.32479,201.44018 c 0.20339,126.14322 -0.1016,204.21493 -0.8159,208.86341 -3.05267,19.86566 -18.34248,34.85572 -38.53022,37.77482 -4.87463,0.70487 -67.95361,1.16029 -162.67998,1.17454 l -154.71817,0.0233 z"
   id="path876" /><path
   style="fill:#ffffff;stroke:#ffffff;stroke-width:1.1135"
   d="m 778.19341,202.87398 c -1.59566,-0.80742 -4.11569,-3.2702 -5.60007,-5.47288 l -2.69887,-4.00486 0.31446,-92.09038 0.31446,-92.0903787 4.38742,-4.0204514 c 3.70748,-3.3973811 5.25198,-4.0204516 9.96612,-4.0204516 h 5.57869 l 90.78405,90.7361767 c 70.71875,70.681465 91.0624,91.657285 92.04342,94.903675 1.67882,5.55554 -0.95336,11.95927 -6.24078,15.18294 -3.81193,2.32406 -5.67071,2.37023 -94.91789,2.35756 -70.46539,-0.0106 -91.68523,-0.34457 -93.93101,-1.48095 z"
   id="path878" /></svg>
