<?xml version="1.0" encoding="utf-8"?>
<!-- Generator: Adobe Illustrator 24.3.0, SVG Export Plug-In . SVG Version: 6.00 Build 0)  -->
<svg version="1.1" id="Слой_1" xmlns="http://www.w3.org/2000/svg" xmlns:xlink="http://www.w3.org/1999/xlink" x="0px" y="0px"
	 viewBox="0 0 210 334" style="enable-background:new 0 0 210 334;" xml:space="preserve">
<style type="text/css">
	.st0{fill:#35302F;}
	.st1{fill:#FFFFFF;}
	.st2{fill-rule:evenodd;clip-rule:evenodd;fill:#35302F;}
	.st3{fill:#D8B8A1;}
</style>
<path class="st0" d="M141.3,153.7c-0.1,0-14.8,1.4-32.5,11.6c-17.5,10.1-23.6,20.6-23.7,20.7l-1,4.1c0,0-2-0.5-3.7-3.5
	c-1.7-3-1.2-4.4-1.2-4.4c0.3-0.5,6.9-12,26-23c19-11,34.4-12.4,35.1-12.4c1.4,0.8,2.6,1.9,3.4,3.4c0.8,1.6,1.3,3.3,1.3,5.1
	L141.3,153.7z"/>
<path class="st0" d="M151.7,38.5c7.4-8,15.1-9.3,16.7-11.7L180.9,7l-1.8-1.7l-2.6-2.4l-1.8-1.7l-18.8,14c-2.3,1.8-3,9.5-10.5,17.5
	l-38.1,41.1l1.8,1.7l2.6,2.4l1.8,1.7C113.6,79.5,144.2,46.5,151.7,38.5z"/>
<path class="st1" d="M166.5,25.8c0,0-6.7,2.6-9.4,0.7c-2.7-2,0-9.4,0-9.4s-7.5,13.6-5.7,15.2C152.9,33.7,166.5,25.8,166.5,25.8z"/>
<path class="st2" d="M51.1,160.3c-0.4,0.2-0.8,0.4-1.1,0.5c-4,1.9-12.9-1.5-12.9-1.5l-2.9-2.6c0,0-3.9-8.7-2.4-12.8
	c0.1-0.3,0.3-0.7,0.4-1.1c2-5.6,5.9-16.3,18.5-29.7c16-17.2,28.7-24.7,37.4-29.9c4.5-2.7,7.9-4.7,10.2-7.1c4.6-5,5.1-7.9,5.5-10.8
	c0.1-1,0.5-2,1.1-2.8l4.2-4.5c1.1-1.2,2.8,0.1,2.8,0.1l7.5,7l2.9,2.6l7.5,6.9c0,0,1.4,1.6,0.3,2.8l-4.1,4.5
	c-0.8,0.7-1.7,1.1-2.7,1.3c-2.9,0.6-5.7,1.2-10.4,6.3c-2.2,2.4-4,6-6.3,10.7c-4.5,9-11.1,22.3-27,39.5
	C66.9,153.1,56.6,157.8,51.1,160.3z M39.4,151.8c0.1,0.3,0.4,0.6,0.6,0.8c0.5,0.5,1.2,0.7,1.9,0.7c0.7,0,1.4-0.3,1.8-0.9l2.1-2.3
	c0.2-0.3,0.4-0.6,0.5-0.9c0.1-0.3,0.2-0.7,0.2-1c0-0.4-0.1-0.7-0.2-1c-0.1-0.3-0.4-0.6-0.6-0.8c-0.5-0.5-1.2-0.7-1.9-0.7
	c-0.7,0-1.4,0.3-1.9,0.9l-2.1,2.3c-0.2,0.3-0.4,0.6-0.5,0.9c-0.1,0.3-0.2,0.7-0.2,1C39.2,151.2,39.2,151.5,39.4,151.8z"/>
<path class="st0" d="M32.1,157.7c-0.4-0.9-4.1-9.2-2.6-14.1c0-0.2,0.1-0.3,0.2-0.5l0.4-1.2c2.2-5.9,6.1-16.7,18.8-30.4
	C65.1,94,78.2,86.3,86.8,81.2c4.3-2.5,7.6-4.5,9.7-6.7c3.1-3.4,4-5.4,4.4-6.7c0.3-0.9,0.4-1.8,0.5-2.8c0.2-1.5,0.8-2.9,1.7-4.1
	l4.2-4.5c1.7-1.8,4.3-1.5,6-0.1l18,16.7l0.1,0.1c0.3,0.3,1.9,2.2,1.2,4.4c-0.2,0.6-0.5,1.1-0.9,1.6l-4.2,4.5l-0.1,0
	c-1.1,1-2.5,1.7-3.9,2c-2.4,0.5-4.8,0.9-9.1,5.6c-2,2.1-3.7,5.7-5.9,10.1c-4.5,9-11.2,22.6-27.4,40.1c-8.2,8.8-18,16-28.9,21
	c-0.4,0.2-0.8,0.4-1.2,0.5c-4.7,2.2-11.8-0.2-13.4-0.8c-0.9-0.3-1.8-0.7-2.6-1.3c-1-0.6-1.8-1.4-2.4-2.4L32.1,157.7z M38.3,157.3
	c3.4,1.2,8.6,2.3,10.7,1.4l1.2-0.5c5.4-2.4,15.3-7,27.4-19.9c15.7-17,22.3-30.2,26.6-38.9c2.4-4.8,4.2-8.6,6.7-11.2
	c5-5.4,8.2-6.3,11.7-7c0.5-0.1,1-0.3,1.4-0.7l3.7-4l-17.5-16.3l-3.7,4c-0.2,0.3-0.4,0.6-0.5,1c-0.1,0.2-0.1,0.4-0.1,0.6
	c-0.1,1.2-0.3,2.4-0.7,3.6c-0.8,2.8-2.5,5.4-5.5,8.6c-2.5,2.7-6.1,4.8-10.7,7.5c-8.4,5-21.1,12.5-36.9,29.4
	c-12.1,13-15.8,23.3-17.9,28.8l-0.5,1.2c-0.8,2.2,0.8,7.4,2.2,10.6L38.3,157.3z"/>
<path class="st1" d="M118.2,75.3c-0.6-0.6,2.4-3.9,3.2-3.2c0.8,0.7,4.3,3.8,3.9,4.2c-0.6,0.6-1.4,1.5-2.3,2.5
	c-0.9,1-7.2,2.4-7.2,2.4s4.4-3.6,4.8-4.1C121.1,76.6,118.8,75.9,118.2,75.3z"/>
<path class="st0" d="M130.8,83.8l-0.1-0.3c-4-5.9-10.9-3.7-11.9-3.3c-1.9,0.5-3.8,1.2-5.6,2.1c-0.3,0.2-4.7,3.3-5.6,4.2
	c-2.2,2.3-4.3,5.1-6.9,6.9c-3.8,2.7-9.7,3.7-12,6.8c-2.5,3.4,0.8,6.4,1.8,7.6c2.7,2.8,6.3,4.6,10.2,5.1c3,1.9-2.9,3.7-4.8,6.9
	c-4.1,7-11.4,12-19,13.8c-4.9,1.2-10.9,3.1-15.7,4.6c-3.3,1.2-6.6,2.1-10,2.9c1.3,1.5,2.5,2.7,3.3,3.4c1.9,4,7.9,16.2,13.5,23.1
	c2.1,2.6,5.6,4.6,9,6.5c1.9,1.1,3.1,1.8,3.6,2.2c0.9,1.5,3.5,6,6.2,11c2.2-0.9,4.5-1.6,6.7-2.4c-1.2-3.1-2.2-5.7-2.1-6
	c0.1-0.8,2.3,1.9,4.7,5c1-0.4,1.9-0.9,2.8-1.4c4.8-2.7,9.4-5.4,14.1-8.2c4.4-2.5,7.8-4.4,11.2-7.9c3.6-3.8,7.8-6.7,11.7-10.1
	c0.5-0.4,1-0.8,1.5-1.1l-1.9-3.4l-1-2.8l4.6-14.9c0.2-0.6,4.1-15.5,3.6-23.1C142.4,103.5,132.7,87,130.8,83.8z"/>
<path class="st1" d="M126,86.7c-1.2-1.8-5.9-0.9-7.9-0.1c-2.1,0.8-14.3,10.1-14.3,10.1l-9.5,5.2c0,0-1.7,2.1,1.6,4.8
	c3.3,2.7,13.2,2.3,13.2,2.3l11-4.4l0.5,1.7c0,0-2.6,1.8-3.9,2.9c-1.3,1-1.1,2.6-2.8,4.5c-1.6,1.9-6.4,3.2-11.2,11.7
	c-4.7,8.5,0.6,25.1,0.6,25.1s-9.5-14.9-8.4-20.9c1.1-6,3.8-9.2,5.9-11.1c2.1-1.9,7.2-6,7.2-6c-2.6,0.3-5.3,0.1-7.8-0.6
	c0,0-0.7,1.8-3.5,4c-0.1,0.7-0.3,1.4-0.6,2c-0.3,0.6-0.8,1.2-1.3,1.6c-4.4,3.5-9.9,6.7-13.5,9.8c-1,0.9-2.2,1.5-3.5,1.8
	c-1.3,0.3-2.7,0.2-3.9-0.2c-3.5,2.2-7.4,3.7-11.5,3.2c-1.7,1.8-3.6,3.4-5.7,4.8c1.4,1.5,2.5,2.4,2.5,2.4s7.1,15.3,13.3,23
	c2.8,3.4,11.5,6.7,12.8,9c0.4,0.6,3.7,6.4,7.1,12.2c2.3-0.7,4.6-1.7,6.7-2.8c4.8-2.7,9.4-5.4,14.1-8.2c4.4-2.5,7.8-4.4,11.2-7.9
	c2.8-2.7,5.7-5.3,8.8-7.7l-2.7-4.6l-1.8-5l5-16.5c0,0,3.8-14.5,3.4-21.3C136.7,104.7,126,86.7,126,86.7z"/>
<path class="st3" d="M125.2,87.2c1.1,1.5,1.1,1.3,2.5,4.4c3.6,7.7,0,20-3.9,24.4c-10.7,12.2-24.4,10.9-17.9,22.7
	c0.2,2.3-6.2-1.8-5.8,0.1c-2.7-5-4.9-5.9-4.3-9.2c1.1-5.9,3.7-8.8,5.6-10.5c1.5-1.4,4.6-3.9,6.2-5.1c0.5-0.8,0.9-1.6,1.2-2.5
	l-0.9,0.1l-0.4,0c-0.5,0.2,13.2-7.7,13-8.2c-1.9-5-23.6,1.2-25.9,0.4c-0.3,0.3-0.1,2,0.1,4c0.6,0.5,1.1,1.1,1.4,1.8
	c0.5,0.9,0.8,1.9,0.8,3c0.1,1-0.1,2.1-0.4,3.1c0,0.8-0.2,1.5-0.6,2.2s-0.8,1.3-1.4,1.8c-4.4,3.5-9.9,6.7-13.5,9.8
	c-1,0.9-2.2,1.5-3.5,1.8s-2.7,0.2-3.9-0.2c-3.5,2.2-7.4,3.7-11.5,3.2c-1.9,2-4.1,3.8-6.5,5.3c1.2,1.2,2.1,2.1,2.5,2.4
	c0.8,1.8,7.4,15.7,13.3,22.9c1.6,1.9,4.8,3.8,7.6,5.4c2.2,1.2,4.6,2.6,5.1,3.5c0.4,0.6,3.3,5.7,7,12.1c2.6-0.8,5.2-1.9,7.6-3.1
	c4.8-2.7,9.4-5.4,14.1-8.2c4.4-2.5,7.8-4.4,11.2-7.9c3-3.1,6.3-5.6,9.6-8.3l-2.6-4.3l-1.6-4.7l4.9-16.2c0.2-0.6,3.9-14.8,3.5-21.6
	c-0.2-3.9-3.6-11-6.6-16.7c-0.1,0.1-0.2,0.2-0.4,0.3C132,93.6,127.1,85.5,125.2,87.2z"/>
<path class="st1" d="M78.5,156c6.8-1.9,17.9-9,16.7-11.2c-1.3-2.2-10.3-4-15.4-1.8C67,148.7,74.1,157.2,78.5,156z"/>
<path class="st0" d="M71.8,164.8c1.6,1.9,4.8,3.8,7.6,5.4c2.2,1.2,4.6,2.6,5.1,3.5c0.5,0.9,3.6,6.2,7,12.1l1.7-0.6
	c-3.5-6-6.6-11.6-7.1-12.4c-0.7-1.2-2.7-2.4-5.8-4.2c-2.7-1.5-5.7-3.3-7.1-4.9c-6-7.4-13.1-22.6-13.1-22.8l-0.1-0.2l-0.1-0.1
	c0,0-1-0.9-2.3-2.3c-0.5,0.4-1,0.7-1.5,1c1.2,1.2,2.1,2.1,2.5,2.4C59.3,143.7,65.9,157.5,71.8,164.8z"/>
<path class="st0" d="M129.4,89.1l-1.9-2.5c-1.7-2.5-7.8-1.6-9.8-0.8c-0.3,0.1-0.6,0.3-0.9,0.4c-3.3,1.9-12.7,9-13.6,9.7l-9.6,5.3
	l-0.1,0.1c0,0-2.2,2.9,1.7,6.1c3.5,2.9,13.4,2.5,13.9,2.5l0.2,0l0.1-0.1l10.1-4l0.1,0.1c-0.8,0.6-2.4,1.8-3.4,2.5
	c-0.7,0.6-1.2,1.4-1.5,2.3c-0.3,0.8-0.8,1.6-1.4,2.3c-0.6,0.6-1.2,1-1.9,1.5c-4,2.6-7.2,6.2-9.4,10.5c-3,5.4-5.4,3.2-4.2,8.9
	c-2.7-5-2.5-0.9-1.9-4.1c1.1-5.9,4-8,5.9-9.8c2.1-1.9,7.5-6.1,7.5-6.1l1.8-2.5l-3.1,0.3c-2.5,0.3-5,0.1-7.4-0.5l-0.8-0.3l-0.3,0.8
	l-0.7,1l2,0.4c0.4-0.5,0.2-0.1,0,0c1.5,0.3,3,0.5,4.5,0.5c-1.7,1.3-3.9,3.1-5.1,4.3c-2.1,1.9-5.6,5.1-6.2,11.6
	c-0.8,8.8,8.1,14.2,8.5,14.8l10.6,3.7c0,0-14-14-9.5-22.1c2.1-4,5.2-7.4,8.9-9.8c0.8-0.5,1.5-1.1,2.2-1.8c0.7-0.8,1.2-1.8,1.7-2.8
	c0.2-0.6,0.5-1.1,1-1.6c1.2-1,3.8-2.8,3.8-2.8l0.5-0.4l-1-3.3c-14.4,6.4-21.8,4.7-24.2,2.7c-2.1-1.8-1.8-3-1.6-3.4l9.4-5.2l0.1,0
	c0.1-0.1,10.2-7.7,13.5-9.6c0.2-0.1,0.4-0.2,0.6-0.4c2.6-1,6.1-1.3,6.8-0.3c0.5,0.8,10.7,18,11.1,24.3c0.4,6.6-3.4,20.9-3.4,21
	l-5.1,16.8l1.9,5.4l2.7,4.7l1.8-2l-2.3-4l-1.5-4.2l4.6-16.2c0.2-0.6,4.3-15.2,3.9-22.1C138.5,104.2,129.9,89.8,129.4,89.1z"/>
<path class="st0" d="M78.5,134.5l18.3,3.6l8.6-20.3l9-10.2l-9.9,1.6l-11.2-3l-28.2,26.3l-2,4.2L78.5,134.5z"/>
<path class="st0" d="M94.1,159.5c0,0,7.4-7.1,8.9-9.7c1.5-2.6,0.5-6.9,0.5-6.9l-5.7-7l-4.3,1.7c0,0,6.7,8.9,4.9,13.5
	C97.1,153.8,95.7,156.7,94.1,159.5z"/>
<path class="st0" d="M129.3,150.6l4.7-9.2l-2.6-4.4l-8.4,13L129.3,150.6z"/>
<path class="st0" d="M79.8,173l7.4,1.9l-1.2-4.4l0.3-4.6l-4.1,1.4l-6.4-1.5L79.8,173z"/>
<path class="st0" d="M44.9,134.2c2.1,2.6,4.5,5,7.1,7.1c1.1-0.3,2.2-0.5,3.4-0.8c4.1-1.4,0.3-10.4,4.7-10.1c4.7,0.4,9.7-6.2,9.7-6.2
	c12.4-1.9,9.5-6.5,12.8-9.5c1.4-1.7,3.9-0.4,5.3-2c1.9-2,3.9-6.9,7.4-11.2c0,0,1.6,2.7,7,0.1c3.4-1.6,7.4-6.7,7.6-11.8
	c0.2-4.4-4.9-12.5-4.9-12.5c-2.5-4.5-6.6-15-10.8-17.7c-5.3-3.4-9.6-3.9-15.9,1.7c-2.3,2.1-5.4,7.3-5.2,10.4
	c-2.5,0.3-4.8,1.3-6.8,2.7l-0.2,0.2c-4.9,3.7-6.8,7.7-7.5,10.3c-2.5,0.1-4.9,0.9-6.8,2.5c-0.5,0.4-1,0.8-1.4,1.2
	c-3.4,3.2-5.5,7.5-6,12.1l-0.1,0c-1.3,0.3-2.4,0.9-3.4,1.7c-4.3,3.3-6.1,10-6.4,11.3l0,0.1l-0.1,0.5c-0.3,2.4-0.5,7,2.1,9.9
	L44.9,134.2z"/>
<path class="st1" d="M90.2,90.6c-1.4-0.5-8.3-13.2-8.3-13.2L79,73.5c0,0,2.1-13,11.9-8.9c1,0.4,9,16,9,16S92.8,89.9,90.2,90.6z"/>
<path class="st3" d="M93.3,80.3c-2.3,1.8-6.5,4.4-8.4,2.4c2.1,3.6,5.4,8.8,6.4,10.7c2.2,4.3,15.3-2.7,10.5-10c-3.2-6-5.2-9-5.2-9
	C97,77.3,95.2,78.8,93.3,80.3z"/>
<path class="st1" d="M87.2,93c0,0-3,1.8-2.5,3.9c1.4,5.5,6.6,7.3,6.6,7.3s-1.8,3.2-4.7,4.3c-3,1.1-4.3,1.3-7.1-0.1
	c-2.8-1.4-15.8-20.4-15.8-20.4s0-4.7,6.1-9.2c6-4.5,9.3,0.8,9.3,0.8L87.2,93z"/>
<path class="st3" d="M71.7,101c0.8-0.7-4.8-6.4-4.2-6.9c0.5-0.4,5.8,5.3,7.1,4.4c1.7-1.1,6-3.1,7.6-5.6c2.5-3.9-1-5.7,0.3-6.7
	c1-0.7,3.4,4,3.8,3.7l1.7,2.7l0.4,0.7l-0.1,0.1c0,0,5.4,5.5,3.4,11.8c-0.7,1.1-1.7,2.1-2.7,2.9c-0.7,0.5-1.4,1-2.2,1.3
	c-3.2,1.2-4.8,1.4-7.8-0.1C77.8,108.7,74.8,105.1,71.7,101z"/>
<path class="st0" d="M75.6,76.3c-2-0.4-4.1,0.2-6.4,1.9L69,78.3c-6.2,4.7-6.2,9.6-6.2,9.8l0,0.3l0.1,0.2c2.2,3.2,13.2,20,16,21.4
	c2.9,1.4,4.6,1.3,7.8,0.1c0.7-0.3,1.6-1.4,2.3-2c1.2-0.9,2.3-2.1,3.1-3.4l0.5-1l-0.3-1.5c0,0-2.2-2.3-2.3-2.4c0.9,3.7,0,5.2-1.9,6.6
	l-0.2,0.1c-0.5,0.4-1.1,0.8-1.7,1c-2.8,1.1-3.9,1.2-6.3-0.1c-1.9-0.9-10.3-12.4-15.3-19.8c0.1-1,0.8-4.5,5.5-8.1l0.2-0.1
	c1.8-1.3,3.4-1.9,4.9-1.6c1.2,0.3,2.3,1.1,3,2.2l6.7,10.8c0.4,0.3,5.6,9.8,5.9,10.2c0.6,0.4,1.8,3.9,2.4,4.2
	c0.2,0.1,1.1-3.5,1.3-3.4L89.2,93l-0.5-0.8l-8.9-12.9C78.9,77.8,77.3,76.7,75.6,76.3z"/>
<path class="st1" d="M76.9,112.2c0,0,1.5,2.9-3.4,6.8c-1,0.9-2.3,1.3-3.6,1.3c-1.3-0.1-2.5-0.7-3.4-1.6c0,0-11.7-11.8-12.8-13
	c-1.2-1-2.5-1.8-3.9-2.4c-0.1-2,0.3-3.9,1-5.7c0.8-1.8,1.9-3.4,3.3-4.8c4.9-4.7,7.9-0.3,7.9-0.3L76.9,112.2z"/>
<path class="st3" d="M70.4,102.1l7.2,9.6l0.1,0.1c0.1,0.1,1.8,3.6-3.6,8l-0.1,0.1c-1.2,1-2.7,1.5-4.2,1.4c-1.5-0.1-2.9-0.8-3.9-2
	l-6.9-7c0.7-0.6-4.9-4.3-4.2-4.9c0.3-0.3,6.3,2.9,6.6,2.6c1.9-1.6,5-4.3,6.9-5.9c0.5-0.4-2.1-5.1-1.5-5.5
	C67.2,98.1,70,102.5,70.4,102.1z"/>
<path class="st0" d="M66,119.7l-12.8-12.6c-1.1-1.1-2.3-2.1-3.7-2.9L49,104l0-0.5c-0.1-2.1,0.3-4.2,1.1-6.1c0.8-1.9,2-3.7,3.5-5.1
	c2-1.9,3.9-2.7,5.8-2.4c1.4,0.3,2.6,1.1,3.4,2.2L79,112.3l0.1,0.1c0.1,0.1,1.4,3.1-4.1,7.4l-0.5,0.4l-0.4,0.4
	C70.5,123.4,67.2,121.1,66,119.7z M61.4,93L61.4,93c-0.6-0.8-1.4-1.3-2.3-1.5c-1.3-0.2-2.7,0.4-4.2,1.9c-1.3,1.2-2.3,2.6-3,4.2
	s-1.1,3.3-1.1,5c1.3,0.6,2.5,1.4,3.6,2.3L67.2,118l0,0c0.3,0.4,0.8,0.7,1.2,1c0.5,0.2,1,0.4,1.5,0.4c0.5,0,1.1,0,1.5-0.2
	c0.5-0.2,1-0.4,1.3-0.8l0.1-0.1c3.9-3.1,3.3-5.3,3.2-5.6L61.4,93z"/>
<path class="st1" d="M50.6,132.1c2.3-1.1,4.6-2,7-2.8c-1.9-0.8-3.7-1.8-5.3-3.1l-0.1-0.1c-2.8-2.2-5.6-4.5-6.1-5.4
	c-0.9-1.8,0.8-1.4,0.8-1.4s7.3,6.6,12.3,7c4.9,0.4,5.2-3.8,4.4-5.7c-0.8-2-12.3-13-12.3-13c-0.3-0.4-1.7-2.4-5.6-1.4
	s-5.8,8.9-5.8,8.9s-0.5,4,0.7,5.5c1.3,1.4,8.7,9.9,8.7,9.9C49.7,131.1,50.1,131.6,50.6,132.1z"/>
<path class="st3" d="M52.1,126.2c-2.8-2.2-5.6-4.5-6.1-5.4c-0.3,0-0.5-0.1-0.8-0.2c-1.9-0.5-3.6-1.2-5.3-2.1c0.1,0.7,0.3,1.4,0.7,2
	c1.3,1.4,8.7,9.9,8.7,9.9c0.4,0.5,0.9,1.1,1.3,1.6c2.3-1.1,4.6-2,7-2.8c-1.9-0.8-3.7-1.8-5.3-3.1L52.1,126.2z"/>
<path class="st3" d="M63,126.4c-1.2,0.8-2.6,1.1-4,0.9c-3-0.3-6.6-2.5-9.2-4.4c0.9-1.2-1.5-1.4-0.2-0.5c-0.6-0.4-4.6-0.4-2.5-3.2
	c0.3-0.5,4.9,1.1,5.2,0.6c1.2-1.6,2.3-3.1,2.7-3.7c0.2-0.2,0.5-0.5,0.8-0.8c0.2-0.2-3.3-5.4-3.1-5.6c0.2-0.2,4.2,4.5,4.4,4.3l1-0.9
	c3,3,6,6.2,6.3,7.3C64.9,121.9,65.1,124.8,63,126.4z"/>
<path class="st0" d="M96,101.8c0.1-0.7-0.5-1.1-0.2-1.7c-0.2,0-0.4,1.5-0.4,1.5l-0.8,0.6l-0.7,0.6c0,0-1,2.5-4.7,5.5
	c-5.4,4.3-7.2,4.5-7.3,4.4l-2.5-1.4l1.2,2.6c0.1,0.1,1,2.6-1.9,6.1c-0.3,0.4-0.7,0.8-1.2,1.1c-3.2,2.5-7.9,2.1-7.9,2.1l-0.9-0.1
	l-0.1,0.9c-0.4,1.7-1.4,3.2-2.8,4.2c-0.4,0.3-0.7,0.5-1.1,0.8c-4.3,2.4-11.1-2.7-11.9-3.3l-0.1-0.1c-1.3-0.9-2.5-1.9-3.7-3
	c2.5,2,6.3,4.9,10.1,5.3c1.4,0.2,2.9-0.1,4-0.9c2.1-1.6,2.9-4.6,2.3-6.1c-0.8-2.1-10.3-11.3-12.4-13.3c-1-1-2.2-1.7-3.5-2.1
	c-1.3-0.4-2.8-0.4-4.1,0c-0.6,0.2-1.3,0.5-1.8,0.9c-3.1,2.4-4.6,8.4-4.7,8.6l0,0.1c-0.1,0.4-0.5,4.5,1,6.2l8.7,9.9
	c2.6,3.2,5.7,6.1,9.1,8.5c0.7-0.3,1.3-0.6,2-0.8l-0.1-0.1c-3.6-2.5-6.8-5.4-9.5-8.8l0-0.1l-8.7-9.9c-0.7-0.8-0.7-3.2-0.5-4.7
	c0.1-0.5,1.5-5.6,4-7.6c0.3-0.3,0.7-0.5,1.1-0.6c2.8-0.7,4.1,0.3,4.6,1l0,0.1l0,0.1c4.7,4.5,11.5,11.4,12,12.7
	c0.4,1.1,0.5,3-0.7,3.9c-0.8,0.5-1.8,0.7-2.7,0.6c-4.5-0.4-11.7-6.7-11.7-6.8l-0.2-0.2l-0.2,0c-0.3-0.1-0.6-0.1-0.8,0
	c-0.3,0.1-0.5,0.2-0.8,0.3c-0.4,0.3-0.9,1-0.2,2.5c0.3,0.6,1.3,1.8,6.4,5.7l0.1,0.1l0.4,0.3c2.1,1.5,8.7,5.8,13.4,3.1
	c0.5-0.3,0.9-0.6,1.4-0.9c1.6-1.2,2.7-2.8,3.3-4.6c1.6,0,5.5-0.3,8.4-2.5c0.5-0.4,1-0.9,1.4-1.4c2.2-2.6,2.6-4.8,2.5-6.3
	c1.8,0.3,5,0.2,9.2-3.1c2-1.6,2.3-1.9,1.4-7.3C93,101.6,95.9,102.2,96,101.8z"/>
<path class="st0" d="M97.1,112.1c2.5-1.8-7.8-7.8-5.2-9.5c4-2.7,19.7-8,23.7-10.7c5.5-3.7,12.2-0.5,17.7-4.1
	c-1.1-1.9-1.9-3.4-2.4-4.1l-0.1-0.2c-4.1-6-13.6-2.6-14.6-2.2c-0.6,0.2-1.1,0.5-1.6,0.8l-1,0.6c-0.3,0.2-4.3,3.9-5.2,4.8
	c-2.2,2.3-4.9,4.1-7.5,5.9c-3.8,2.7-9.7,3.7-12,6.8c-2.5,3.4,0.8,6.4,1.8,7.6C92.3,109.8,94.6,111.2,97.1,112.1z"/>
<path class="st1" d="M99,107.3c-4.2-2.2,5.9-4.4,11.4-5.6c4.7-0.9,2.3,0.1,6.3-2.6c4-2.7,7.8-5.4,11.7-8.1c-1.5-2.6-2.5-4.4-2.5-4.4
	c-1.2-1.8-5.9-0.9-7.9-0.1c-2.1,0.8-14.3,10.1-14.3,10.1l-9.5,5.3c0,0-1.7,2.1,1.6,4.8C97.1,107.8,96.6,107,99,107.3z"/>
<path class="st0" d="M100.8,109.5l2.3-1.5c-2.7-0.3-5.3-0.8-6.7-1.9c-2.1-1.8-1.8-3-1.6-3.4l9.4-5.2l0.1,0
	c0.1-0.1,10.2-7.7,13.5-9.6c0.2-0.1,0.4-0.2,0.6-0.4c2.6-1,6.1-1.3,6.8-0.3c0.1,0.2,1.1,2,2.5,4.4l1.5-1c-1.4-2.4-2.4-4.1-2.5-4.3
	l0,0c-1.7-2.5-7.1-1.1-9-0.4c-0.3,0.1-0.6,0.3-0.9,0.4c-3.3,1.9-12.7,9-13.6,9.7l-9.6,5.3l-0.1,0.1c0,0-2.2,2.9,1.7,6.1
	C96.5,108.5,98.6,109.1,100.8,109.5z"/>
<path class="st0" d="M117.9,83.3c1.5,2.5-8.3,4.8-8.3,4.8l-9.4-16.2c0,0-9.2-15.2-5-11.4c4.3,3.7,14.2,19.3,14.2,19.3
	S116.4,80.8,117.9,83.3z"/>
<path class="st0" d="M76.7,162.7C76.4,162.7,76.4,162.6,76.7,162.7c3,1.5,6.8,1.2,9.8-0.2c0.2-0.1,0.2,0,0,0
	c-1.5,0.3-3.1,0.4-4.6,0.4"/>
<path class="st0" d="M121.7,146C121.1,146.7,121.1,146.7,121.7,146c5.8-6.1,9.6-13.7,9.7-22.2c0,0-2.2,7.5-2.5,8.4"/>
<path class="st0" d="M92.9,176.5c0.5,0.8,1.2,1.5,0.8,0.7l-0.9-3.4c-1-1.9-2.3-3.6-3.7-5.2c-0.4-0.9-0.4-0.8,0,0"/>
<path class="st0" d="M118.8,177c-19,10.9-34.4,12.3-35.1,12.4l-1-7.1l0.5,3.5l-0.5-3.5c0.1,0,14.8-1.4,32.5-11.6
	c17.5-10.1,23.6-20.6,23.7-20.7l5.9,3.9C144.5,154.5,137.9,166,118.8,177z"/>
<path class="st0" d="M101.4,207.1l-7-2.7c-3.1-1.2-5.7-3.4-7.4-6.3l-6.7-11.6l6.8-4L101.4,207.1z"/>
<path class="st0" d="M151.3,178.3l-14.2-24.6l6.6-3.8l10.4,18c0.5,0.9,0.8,1.8,0.9,2.8c0.1,1,0.1,2-0.2,2.9c-0.3,1-0.7,1.9-1.3,2.6
	C152.9,177.2,152.1,177.8,151.3,178.3z"/>
<path class="st0" d="M94,102.2c-3.1,3.6-6.2,7.3-9.7,10.6c-4.5,4.2-9.4,9.2-14.7,12.4c-3.3,2-8.2,3.6-12.1,2.2
	c-2.7-0.9-4.6-2.3-6.9-3.7c-0.7-0.4-1.3-0.9-1.9-1.4l-5.6,5.8c1.3,1.4,2.5,2.9,3.6,4.4c-1-1.3,3.5,3,1.7,1.7
	c1.6,1.2,3.4,2.2,4.6,3.8c2.7,3.2,5.2,6.4,7.6,9.7c1.6,2.2,2.6,4.7,3,7.4c10.5-12.1,23.8-27.5,36-41.5c-0.3-0.1-0.5-0.2-0.8-0.3
	C94.4,110.9,93,106.4,94,102.2z"/>
<path class="st1" d="M48.6,157.4c0,0,6.2-0.5,17.7-12.9c6.1-6.5,12.6-14,26.3-35.5c0.6-0.9-0.4-1,1.4,0.1c0.7,0.4,0.6,0.3,1.3,0.6
	l0.1,0.1c-8,11.2-14.2,20-22.7,29.4C54.3,159.5,48.6,157.4,48.6,157.4z"/>
<path class="st0" d="M143.8,166.7c-18.8,17.9-41.5,23.4-41.5,23.4s27.9-12.5,38.3-27.3C145.1,156.2,150.6,160.3,143.8,166.7z"/>
<path class="st0" d="M147.4,172.9c-18.8,17.9-41.5,23.4-41.5,23.4s27.9-12.5,38.3-27.3C148.7,162.4,154.2,166.5,147.4,172.9z"/>
<path class="st0" d="M151.5,178.8c-18.8,17.9-41.5,23.4-41.5,23.4s27.9-12.5,38.3-27.3C152.8,168.3,158.3,172.4,151.5,178.8z"/>
<path class="st0" d="M11.6,331.6c-1.2,0-2.2-0.3-3.1-0.8c-0.9-0.5-1.7-1.2-2.2-2.1c-0.5-0.9-0.8-1.9-0.8-3s0.3-2.1,0.8-3
	s1.3-1.6,2.2-2.1c0.9-0.5,2-0.8,3.1-0.8c0.9,0,1.8,0.2,2.6,0.5c0.8,0.3,1.4,0.8,2,1.4l-1.4,1.3c-0.8-0.9-1.9-1.3-3.1-1.3
	c-0.8,0-1.5,0.2-2.1,0.5c-0.6,0.3-1.1,0.8-1.5,1.4c-0.3,0.6-0.5,1.3-0.5,2.1s0.2,1.5,0.5,2.1c0.3,0.6,0.8,1.1,1.5,1.4
	c0.6,0.3,1.3,0.5,2.1,0.5c1.2,0,2.2-0.5,3.1-1.4l1.4,1.3c-0.5,0.6-1.2,1.1-2,1.4C13.4,331.5,12.5,331.6,11.6,331.6z"/>
<path class="st0" d="M28.2,329.7v1.8h-8.6V320h8.4v1.8h-6.2v3h5.5v1.8h-5.5v3.2H28.2z"/>
<path class="st0" d="M36.7,320c1,0,1.9,0.2,2.6,0.5c0.7,0.3,1.3,0.8,1.7,1.4c0.4,0.6,0.6,1.3,0.6,2.2c0,0.8-0.2,1.6-0.6,2.2
	c-0.4,0.6-1,1.1-1.7,1.4c-0.7,0.3-1.6,0.5-2.6,0.5h-2.6v3.3H32V320H36.7z M36.6,326.4c0.9,0,1.6-0.2,2.1-0.6c0.5-0.4,0.7-1,0.7-1.7
	c0-0.7-0.2-1.3-0.7-1.7c-0.5-0.4-1.2-0.6-2.1-0.6h-2.5v4.6H36.6z"/>
<path class="st0" d="M52.6,325.5c0.7,0.2,1.3,0.5,1.7,1c0.4,0.5,0.6,1.1,0.6,1.8c0,1-0.4,1.8-1.1,2.3s-1.8,0.8-3.2,0.8h-5.4V320h5.1
	c1.3,0,2.3,0.3,3,0.8c0.7,0.5,1.1,1.2,1.1,2.2c0,0.6-0.1,1.1-0.4,1.6C53.6,325,53.2,325.3,52.6,325.5z M47.2,324.9h2.8
	c0.7,0,1.2-0.1,1.6-0.4c0.4-0.3,0.5-0.7,0.5-1.2s-0.2-0.9-0.5-1.2c-0.4-0.3-0.9-0.4-1.6-0.4h-2.8V324.9z M50.5,329.8
	c1.5,0,2.3-0.6,2.3-1.7c0-1.1-0.8-1.7-2.3-1.7h-3.3v3.4H50.5z"/>
<path class="st0" d="M58.8,320h2.1v8.1l6.2-8.1h2v11.5h-2.1v-8.1l-6.2,8.1h-2V320z"/>
<path class="st0" d="M79,331.6c-1.2,0-2.2-0.3-3.1-0.8c-0.9-0.5-1.7-1.2-2.2-2.1c-0.5-0.9-0.8-1.9-0.8-3s0.3-2.1,0.8-3
	c0.5-0.9,1.3-1.6,2.2-2.1c0.9-0.5,2-0.8,3.1-0.8c0.9,0,1.8,0.2,2.6,0.5c0.8,0.3,1.4,0.8,2,1.4l-1.4,1.3c-0.8-0.9-1.9-1.3-3.1-1.3
	c-0.8,0-1.5,0.2-2.1,0.5c-0.6,0.3-1.1,0.8-1.5,1.4c-0.3,0.6-0.5,1.3-0.5,2.1s0.2,1.5,0.5,2.1c0.3,0.6,0.8,1.1,1.5,1.4
	c0.6,0.3,1.3,0.5,2.1,0.5c1.2,0,2.2-0.5,3.1-1.4l1.4,1.3c-0.5,0.6-1.2,1.1-2,1.4C80.8,331.5,79.9,331.6,79,331.6z"/>
<path class="st0" d="M97.2,320v11.5h-2.1v-4.9h-5.9v4.9H87V320h2.1v4.7h5.9V320H97.2z"/>
<path class="st0" d="M107.2,323.9c1.4,0,2.4,0.3,3.2,0.9c0.7,0.6,1.1,1.5,1.1,2.7c0,1.3-0.4,2.2-1.2,2.9c-0.8,0.7-1.9,1-3.4,1h-4.9
	V320h2.1v3.9H107.2z M106.7,329.8c0.8,0,1.5-0.2,1.9-0.6c0.4-0.4,0.7-0.9,0.7-1.7c0-1.4-0.9-2.1-2.6-2.1H104v4.3H106.7z M113.1,320
	h2.1v11.5h-2.1V320z"/>
<path class="st0" d="M119.9,320h2.1v8.1l6.2-8.1h2v11.5h-2.1v-8.1l-6.2,8.1h-2V320z M125,319.2c-1,0-1.7-0.2-2.2-0.6
	c-0.5-0.4-0.7-1-0.8-1.8h1.5c0,0.4,0.1,0.7,0.4,0.9c0.3,0.2,0.6,0.3,1.1,0.3c0.5,0,0.8-0.1,1.1-0.3c0.3-0.2,0.4-0.5,0.4-0.9h1.5
	c0,0.8-0.3,1.4-0.8,1.8C126.7,319,126,319.2,125,319.2z"/>
<path class="st0" d="M152.6,329.7v4.3h-2v-2.5h-9.7V320h2.1v9.7h5.8V320h2.1v9.7H152.6z"/>
<path class="st0" d="M164.6,329.7v1.8H156V320h8.4v1.8h-6.2v3h5.5v1.8h-5.5v3.2H164.6z"/>
<path class="st0" d="M178.6,320v11.5h-2.1v-4.9h-5.9v4.9h-2.1V320h2.1v4.7h5.9V320H178.6z"/>
<path class="st0" d="M191.6,321.8h-3.8v9.7h-2.1v-9.7h-3.8V320h9.7V321.8z"/>
<path class="st0" d="M199.7,320c1,0,1.9,0.2,2.6,0.5c0.7,0.3,1.3,0.8,1.7,1.4c0.4,0.6,0.6,1.3,0.6,2.2c0,0.8-0.2,1.6-0.6,2.2
	c-0.4,0.6-1,1.1-1.7,1.4c-0.7,0.3-1.6,0.5-2.6,0.5h-2.6v3.3h-2.1V320H199.7z M199.6,326.4c0.9,0,1.6-0.2,2.1-0.6
	c0.5-0.4,0.7-1,0.7-1.7c0-0.7-0.2-1.3-0.7-1.7s-1.2-0.6-2.1-0.6h-2.5v4.6H199.6z"/>
<path class="st0" d="M56.5,253.5v51.8H42.1l-19.7-23.5v23.5h-17v-51.8h14.4L39.5,277v-23.5H56.5z"/>
<path class="st0" d="M128.6,306.4c-5.5,0-10.4-1.1-14.8-3.4c-4.4-2.3-7.8-5.5-10.4-9.6c-2.5-4.1-3.7-8.8-3.7-14.1
	c0-5.2,1.2-9.9,3.7-14c2.5-4.1,6-7.3,10.4-9.6c4.4-2.3,9.3-3.5,14.8-3.5c5,0,9.5,0.9,13.5,2.7c3.9,1.8,7.2,4.3,9.8,7.7l-11,9.8
	c-3.2-4-7-6.1-11.3-6.1c-3.7,0-6.6,1.2-8.8,3.6c-2.2,2.3-3.3,5.4-3.3,9.4s1.1,7.1,3.3,9.5c2.2,2.3,5.2,3.5,8.8,3.5
	c4.3,0,8.1-2,11.3-6.1l11,9.8c-2.6,3.4-5.8,5.9-9.8,7.7C138.1,305.5,133.6,306.4,128.6,306.4z"/>
<path class="st0" d="M205.1,292.1v13.2h-43.1v-51.8h42.1v13.2h-24.9v6.1H198v12.6h-18.8v6.8H205.1z"/>
<path class="st2" d="M84.3,305.2h-9c-0.2-0.3-0.7-2.1-1.2-4.1c-0.6-2.3-1.3-4.9-1.6-5.4l-1.7,0l-1.9-1.9l13-4.7l-10.3,0.8
	c0-0.1,0-0.2,0-0.3c0-0.5-0.1-1.4-0.3-1.6l-2.4-1.9l13.6-4.8c0,0,0-0.1,0.1-0.1c0,0,0,0,0,0l-8.2,0.6c-0.5,0-0.8,0.1-1.2,0.1
	c-0.5,0.1-0.9,0.2-1.5,0.1l0-1.8l-2.9-2l13.7-4.8l-10.9,0.7l-0.1-1.8l-2.7-2.1l12.7-4.1l-10.2,0.1v-7.9l15.8-5.3l0,11
	c0.3,0.2,0.8,0.6,1.3,1c0.9,0.7,2,1.5,2.3,1.9c-1.4,1.1-2.7,2.2-3.6,3.1c0,0.6,0,1,0,1.3c0,0.3,0,0.4,0,0.5c0.8,0.6,1.5,1.2,2.2,1.7
	c0.5,0.4,1,0.7,1.5,1.2c-1.4,1.3-2.4,2-3.7,3l0,1.9c0.2,0.3,1.2,1.1,2.1,1.8c0.6,0.4,1.1,0.9,1.4,1.1c-0.5,0.4-0.9,0.7-1.3,1
	c-1,0.8-1.5,1.2-2.4,2c0,0,0,1.3-0.1,2.1c0.9,0.6,1.6,1,2.3,1.5c0.5,0.3,1,0.7,1.6,1.1c-1.1,1-2,1.7-3,2.5c-0.2,0.2-0.5,0.4-0.7,0.5
	L84.3,305.2z M87.1,248.1l-15.8,5.3l0-8h-8.2c0-8.1,6.3-14.5,13.9-14.5v6.3h4.8v-6.3c8.3,0,13.4,6.3,13.4,14.5h-8.2L87.1,248.1z"/>
</svg>
